<svg xmlns="http://www.w3.org/2000/svg" xmlns:xlink="http://www.w3.org/1999/xlink" width="500" zoomAndPan="magnify" viewBox="0 0 375 374.999991" height="500" preserveAspectRatio="xMidYMid meet" version="1.0"><defs><clipPath id="be9ffe76a7"><path d="M 62 90 L 313.105469 90 L 313.105469 263.96875 L 62 263.96875 Z M 62 90 " clip-rule="nonzero"/></clipPath></defs><path fill="#5271ff" d="M 189.960938 192.515625 C 188.386719 192.515625 186.828125 192.269531 185.28125 191.765625 L 113.542969 167.839844 C 112.242188 171.222656 111.589844 175.578125 111.589844 181.933594 C 116.269531 184.640625 120.832031 190.09375 120.832031 199.484375 C 120.832031 205.238281 117.957031 209.375 115.484375 212.125 C 126.125 224.472656 155.414062 233.351562 189.972656 233.351562 C 233.519531 233.351562 268.804688 219.261719 268.804688 201.90625 C 268.804688 198.074219 268.804688 182.414062 268.804688 167.042969 L 194.621094 191.765625 C 193.09375 192.269531 191.539062 192.515625 189.960938 192.515625 Z M 189.960938 192.515625 " fill-opacity="1" fill-rule="nonzero"/><g clip-path="url(#be9ffe76a7)"><path fill="#5271ff" d="M 309.769531 130.453125 L 191.519531 91.035156 C 190.492188 90.703125 189.417969 90.703125 188.40625 91.035156 L 70.152344 130.453125 C 68.140625 131.125 66.78125 133.003906 66.78125 135.125 C 66.78125 137.242188 68.140625 139.125 70.152344 139.796875 L 97.261719 148.832031 C 91.023438 156.066406 87.398438 166.265625 86.066406 182.859375 C 81.78125 184.878906 78.753906 189.183594 78.753906 194.25 C 78.753906 199.402344 81.851562 203.789062 86.265625 205.769531 C 82.410156 239.324219 62.320312 250.507812 62.320312 253.375 C 62.320312 254.835938 77.878906 263.230469 81.574219 263.230469 C 87.289062 263.230469 101.007812 253.535156 101.007812 232.59375 C 101.007812 220.257812 99.894531 210.933594 98.71875 204.320312 C 101.882812 202.027344 104.082031 198.46875 104.082031 194.25 C 104.082031 189.648438 101.507812 185.804688 97.832031 183.589844 C 99.914062 156.203125 108.378906 151.621094 128.855469 143.125 C 130.90625 142.316406 134.777344 140.75 137.015625 139.824219 C 141.035156 138.167969 144.671875 136.691406 148.160156 135.292969 C 159.421875 130.816406 168.941406 127.222656 176.203125 124.550781 C 184.15625 121.710938 187.726562 120.679688 187.851562 120.636719 C 190.898438 119.613281 194.289062 121.257812 195.332031 124.363281 C 196.367188 127.457031 194.710938 130.808594 191.605469 131.851562 C 191.371094 131.933594 177.535156 135.882812 141.539062 150.761719 C 139.222656 151.71875 137.015625 152.585938 134.914062 153.414062 C 130.648438 155.097656 127.109375 156.449219 124.144531 157.808594 L 188.40625 179.222656 C 188.917969 179.378906 189.429688 179.46875 189.960938 179.46875 C 190.492188 179.46875 191.007812 179.378906 191.519531 179.210938 L 309.769531 139.796875 C 311.78125 139.125 313.140625 137.242188 313.140625 135.125 C 313.140625 133.003906 311.78125 131.125 309.769531 130.453125 Z M 309.769531 130.453125 " fill-opacity="1" fill-rule="nonzero"/></g></svg>