<svg xmlns="http://www.w3.org/2000/svg" xmlns:xlink="http://www.w3.org/1999/xlink" width="500" zoomAndPan="magnify" viewBox="0 0 375 374.999991" height="500" preserveAspectRatio="xMidYMid meet" version="1.0"><defs><clipPath id="eeda809184"><path d="M 97 93.5 L 278 93.5 L 278 281.75 L 97 281.75 Z M 97 93.5 " clip-rule="nonzero"/></clipPath><clipPath id="7b1b63e838"><path d="M 69.449219 172 L 90 172 L 90 238 L 69.449219 238 Z M 69.449219 172 " clip-rule="nonzero"/></clipPath><clipPath id="ce35b939f1"><path d="M 285 172 L 305.699219 172 L 305.699219 238 L 285 238 Z M 285 172 " clip-rule="nonzero"/></clipPath></defs><g clip-path="url(#eeda809184)"><path fill="#5271ff" d="M 237.359375 281.480469 L 137.496094 281.480469 C 115.503906 281.480469 97.664062 263.636719 97.664062 241.785156 L 97.664062 177.054688 C 97.664062 155.0625 115.503906 137.222656 137.496094 137.222656 L 183.140625 137.222656 L 183.277344 122.007812 C 177.332031 120.207031 172.90625 114.675781 172.90625 108.039062 C 172.90625 100.015625 179.542969 93.515625 187.566406 93.515625 C 195.589844 93.515625 202.226562 100.015625 202.226562 108.039062 C 202.226562 114.675781 197.664062 120.347656 191.578125 122.144531 L 191.4375 137.222656 L 237.359375 137.222656 C 259.210938 137.222656 277.054688 155.0625 277.054688 177.054688 L 277.054688 241.921875 C 277.054688 263.777344 259.210938 281.480469 237.359375 281.480469 Z M 149.945312 218.6875 C 138.1875 218.6875 128.921875 209.417969 128.921875 197.800781 C 128.921875 186.046875 138.1875 176.777344 149.945312 176.777344 C 161.703125 176.777344 170.832031 186.046875 170.832031 197.800781 C 170.832031 209.417969 161.703125 218.6875 149.945312 218.6875 Z M 149.945312 185.078125 C 142.753906 185.078125 137.222656 190.609375 137.222656 197.800781 C 137.222656 204.855469 142.753906 210.386719 149.945312 210.386719 C 157 210.386719 162.671875 204.855469 162.671875 197.800781 C 162.671875 190.609375 157 185.078125 149.945312 185.078125 Z M 225.046875 217.855469 C 213.292969 217.855469 203.886719 208.453125 203.886719 196.832031 C 203.886719 185.214844 213.292969 175.808594 225.046875 175.808594 C 236.527344 175.808594 245.933594 185.214844 245.933594 196.832031 C 245.933594 208.453125 236.527344 217.855469 225.046875 217.855469 Z M 225.046875 184.109375 C 217.855469 184.109375 212.183594 189.917969 212.183594 196.832031 C 212.183594 203.886719 217.855469 209.695312 225.046875 209.695312 C 232.101562 209.695312 237.636719 203.886719 237.636719 196.832031 C 237.636719 189.640625 231.964844 184.109375 225.046875 184.109375 Z M 185.90625 243.03125 C 178.023438 243.03125 171.105469 239.292969 167.234375 235.976562 C 165.4375 234.453125 165.296875 231.6875 166.820312 230.167969 C 168.339844 228.507812 170.832031 228.230469 172.628906 229.890625 C 173.875 230.996094 185.90625 240.539062 197.386719 230.027344 C 199.046875 228.507812 201.535156 228.507812 203.332031 230.167969 C 204.855469 231.964844 204.855469 234.453125 203.195312 236.113281 C 197.386719 241.09375 191.4375 243.03125 185.90625 243.03125 Z M 185.90625 243.03125 " fill-opacity="1" fill-rule="evenodd"/></g><g clip-path="url(#7b1b63e838)"><path fill="#5271ff" d="M 89.363281 237.082031 L 87.707031 237.082031 C 77.746094 237.082031 69.449219 228.921875 69.449219 218.824219 L 69.449219 190.609375 C 69.449219 180.511719 77.746094 172.214844 87.707031 172.214844 L 89.640625 172.214844 C 89.503906 173.734375 89.363281 175.394531 89.363281 177.054688 Z M 89.363281 237.082031 " fill-opacity="1" fill-rule="evenodd"/></g><g clip-path="url(#ce35b939f1)"><path fill="#5271ff" d="M 287.011719 237.082031 L 285.351562 237.082031 L 285.351562 177.054688 C 285.351562 175.257812 285.214844 173.597656 285.074219 172.074219 L 287.011719 172.074219 C 297.246094 172.074219 305.546875 180.234375 305.546875 190.472656 L 305.546875 218.824219 C 305.546875 229.058594 297.246094 237.082031 287.011719 237.082031 Z M 287.011719 237.082031 " fill-opacity="1" fill-rule="evenodd"/></g></svg>