<svg xmlns="http://www.w3.org/2000/svg" xmlns:xlink="http://www.w3.org/1999/xlink" width="500" zoomAndPan="magnify" viewBox="0 0 375 374.999991" height="500" preserveAspectRatio="xMidYMid meet" version="1.0"><defs><clipPath id="887ce2f74b"><path d="M 93.113281 214 L 107 214 L 107 228 L 93.113281 228 Z M 93.113281 214 " clip-rule="nonzero"/></clipPath></defs><path fill="#38b6ff" d="M 110.90625 221.117188 C 109.324219 219.535156 106.90625 219.386719 105.507812 220.785156 L 99.851562 226.449219 C 98.453125 227.84375 98.605469 230.261719 100.1875 231.84375 C 101.769531 233.425781 104.1875 233.578125 105.585938 232.179688 L 108.410156 229.351562 L 111.238281 226.523438 C 112.636719 225.117188 112.488281 222.6875 110.90625 221.117188 Z M 110.90625 221.117188 " fill-opacity="1" fill-rule="nonzero"/><g clip-path="url(#887ce2f74b)"><path fill="#38b6ff" d="M 105.554688 215.753906 C 103.972656 214.167969 101.554688 214.019531 100.15625 215.417969 L 94.519531 221.074219 C 93.121094 222.472656 93.273438 224.886719 94.855469 226.46875 C 96.4375 228.050781 98.851562 228.203125 100.25 226.804688 L 105.90625 221.148438 C 107.269531 219.75 107.121094 217.335938 105.554688 215.753906 Z M 105.554688 215.753906 " fill-opacity="1" fill-rule="nonzero"/></g><path fill="#38b6ff" d="M 186.488281 264.71875 C 186.191406 264.71875 185.910156 264.667969 185.632812 264.566406 C 185.320312 264.453125 185.042969 264.285156 184.796875 264.0625 C 184.550781 263.839844 184.359375 263.578125 184.21875 263.277344 C 184.074219 262.976562 183.996094 262.664062 183.984375 262.332031 C 183.96875 262 184.015625 261.679688 184.128906 261.367188 C 188.234375 250.117188 179.78125 241.574219 179.421875 241.210938 C 179.199219 240.976562 179.027344 240.710938 178.90625 240.410156 C 178.789062 240.109375 178.730469 239.796875 178.730469 239.472656 C 178.734375 239.148438 178.796875 238.835938 178.921875 238.539062 C 179.042969 238.238281 179.21875 237.972656 179.445312 237.742188 C 179.671875 237.511719 179.9375 237.332031 180.234375 237.203125 C 180.53125 237.074219 180.839844 237.003906 181.164062 236.996094 C 181.488281 236.988281 181.800781 237.039062 182.105469 237.152344 C 182.40625 237.269531 182.679688 237.433594 182.917969 237.652344 C 183.375 238.101562 194.039062 248.761719 188.816406 263.078125 C 188.636719 263.566406 188.335938 263.960938 187.910156 264.261719 C 187.484375 264.5625 187.007812 264.714844 186.488281 264.71875 Z M 186.488281 264.71875 " fill-opacity="1" fill-rule="nonzero"/><path fill="#e9e8e4" d="M 188.933594 298.207031 L 168.726562 289.582031 C 168.070312 289.300781 167.453125 288.960938 166.863281 288.558594 C 166.277344 288.15625 165.734375 287.703125 165.238281 287.195312 C 164.738281 286.683594 164.296875 286.132812 163.90625 285.539062 C 163.519531 284.941406 163.191406 284.3125 162.925781 283.652344 C 162.660156 282.992188 162.464844 282.3125 162.332031 281.613281 C 162.199219 280.914062 162.140625 280.210938 162.148438 279.5 C 162.15625 278.789062 162.230469 278.082031 162.378906 277.386719 C 162.523438 276.691406 162.738281 276.015625 163.015625 275.363281 L 167.960938 263.777344 C 168.242188 263.121094 168.582031 262.5 168.984375 261.914062 C 169.386719 261.328125 169.839844 260.785156 170.347656 260.289062 C 170.859375 259.789062 171.410156 259.347656 172.003906 258.957031 C 172.601562 258.570312 173.230469 258.242188 173.890625 257.976562 C 174.550781 257.710938 175.230469 257.515625 175.929688 257.382812 C 176.628906 257.25 177.332031 257.191406 178.042969 257.195312 C 178.753906 257.203125 179.460938 257.28125 180.15625 257.429688 C 180.851562 257.574219 181.527344 257.789062 182.179688 258.066406 L 184.226562 258.941406 C 184.820312 259.195312 185.402344 259.476562 185.96875 259.789062 C 186.535156 260.097656 187.085938 260.4375 187.621094 260.800781 C 188.15625 261.167969 188.667969 261.558594 189.164062 261.972656 C 189.660156 262.390625 190.136719 262.828125 190.585938 263.289062 C 191.039062 263.753906 191.46875 264.234375 191.875 264.742188 C 192.277344 265.246094 192.65625 265.769531 193.011719 266.308594 C 193.363281 266.851562 193.691406 267.410156 193.988281 267.980469 C 194.289062 268.554688 194.558594 269.144531 194.796875 269.742188 C 195.039062 270.34375 195.25 270.953125 195.433594 271.574219 C 195.613281 272.195312 195.761719 272.824219 195.882812 273.460938 C 196 274.09375 196.089844 274.734375 196.144531 275.378906 C 196.203125 276.023438 196.226562 276.667969 196.21875 277.316406 C 196.214844 277.964844 196.175781 278.609375 196.105469 279.25 C 196.035156 279.894531 195.933594 280.53125 195.796875 281.164062 C 195.664062 281.796875 195.503906 282.421875 195.308594 283.039062 C 195.113281 283.65625 194.890625 284.261719 194.636719 284.855469 Z M 188.933594 298.207031 " fill-opacity="1" fill-rule="nonzero"/><path fill="#38b6ff" d="M 189.050781 298.257812 L 170.167969 290.195312 C 170.359375 289.742188 170.597656 289.3125 170.875 288.90625 C 171.152344 288.496094 171.46875 288.121094 171.820312 287.777344 C 172.175781 287.429688 172.558594 287.125 172.972656 286.851562 C 173.382812 286.582031 173.820312 286.355469 174.277344 286.171875 C 174.734375 285.988281 175.207031 285.851562 175.691406 285.761719 C 176.175781 285.667969 176.667969 285.625 177.160156 285.632812 C 177.652344 285.636719 178.140625 285.691406 178.625 285.792969 C 179.109375 285.894531 179.574219 286.042969 180.03125 286.234375 L 192.003906 291.347656 C 192.460938 291.542969 192.863281 291.820312 193.210938 292.175781 C 193.5625 292.53125 193.828125 292.941406 194.015625 293.402344 C 194.199219 293.863281 194.289062 294.34375 194.285156 294.84375 C 194.277344 295.34375 194.179688 295.820312 193.984375 296.277344 C 193.785156 296.738281 193.511719 297.140625 193.15625 297.488281 C 192.796875 297.835938 192.390625 298.105469 191.925781 298.289062 C 191.464844 298.476562 190.984375 298.566406 190.484375 298.5625 C 189.988281 298.554688 189.507812 298.453125 189.050781 298.257812 Z M 189.050781 298.257812 " fill-opacity="1" fill-rule="nonzero"/><path fill="#38b6ff" d="M 124.367188 212.042969 C 123.871094 211.9375 123.445312 211.703125 123.09375 211.339844 C 122.742188 210.976562 122.519531 210.542969 122.429688 210.042969 C 122.339844 209.546875 122.394531 209.0625 122.601562 208.601562 C 122.804688 208.136719 123.121094 207.765625 123.546875 207.496094 C 127.539062 204.964844 131.789062 203.363281 135.832031 202.847656 C 138.976562 202.449219 140.953125 202.847656 141.167969 202.878906 C 141.492188 202.949219 141.789062 203.074219 142.0625 203.261719 C 142.335938 203.449219 142.5625 203.679688 142.746094 203.957031 C 142.925781 204.230469 143.046875 204.53125 143.109375 204.859375 C 143.171875 205.183594 143.167969 205.507812 143.101562 205.832031 C 143.035156 206.152344 142.90625 206.453125 142.722656 206.726562 C 142.535156 207 142.304688 207.226562 142.027344 207.410156 C 141.753906 207.589844 141.453125 207.710938 141.125 207.773438 C 140.800781 207.835938 140.476562 207.832031 140.152344 207.765625 C 139.863281 207.714844 134.109375 206.714844 126.214844 211.710938 C 125.644531 212.074219 125.027344 212.183594 124.367188 212.042969 Z M 124.367188 212.042969 " fill-opacity="1" fill-rule="nonzero"/><path fill="#d6d6d4" d="M 154.53125 194.753906 C 155.210938 195.203125 155.84375 195.714844 156.421875 196.289062 C 157 196.863281 157.519531 197.488281 157.972656 198.164062 C 158.429688 198.839844 158.816406 199.554688 159.132812 200.308594 C 159.445312 201.058594 159.6875 201.835938 159.847656 202.636719 C 160.011719 203.433594 160.09375 204.242188 160.097656 205.058594 C 160.101562 205.871094 160.023438 206.679688 159.871094 207.480469 C 159.714844 208.28125 159.480469 209.058594 159.171875 209.8125 C 158.863281 210.570312 158.484375 211.285156 158.035156 211.964844 C 157.585938 212.644531 157.074219 213.277344 156.5 213.855469 C 155.925781 214.433594 155.300781 214.953125 154.621094 215.40625 C 153.945312 215.863281 153.234375 216.25 152.480469 216.566406 C 151.730469 216.878906 150.953125 217.121094 150.152344 217.28125 C 149.355469 217.445312 148.546875 217.527344 147.730469 217.53125 C 146.917969 217.535156 146.109375 217.457031 145.308594 217.304688 C 144.507812 217.148438 143.730469 216.914062 142.976562 216.605469 C 142.21875 216.296875 141.503906 215.917969 140.824219 215.46875 C 140.140625 215.019531 139.511719 214.503906 138.933594 213.933594 C 138.355469 213.359375 137.835938 212.730469 137.378906 212.054688 C 136.925781 211.378906 136.539062 210.667969 136.222656 209.914062 C 135.910156 209.160156 135.667969 208.386719 135.507812 207.585938 C 135.34375 206.789062 135.261719 205.980469 135.257812 205.164062 C 135.253906 204.351562 135.328125 203.542969 135.484375 202.742188 C 135.640625 201.941406 135.875 201.164062 136.183594 200.40625 C 136.492188 199.652344 136.871094 198.9375 137.320312 198.253906 C 137.769531 197.574219 138.28125 196.945312 138.855469 196.367188 C 139.429688 195.789062 140.054688 195.269531 140.730469 194.8125 C 141.410156 194.359375 142.121094 193.972656 142.875 193.65625 C 143.625 193.339844 144.402344 193.101562 145.203125 192.941406 C 146 192.777344 146.808594 192.695312 147.625 192.691406 C 148.4375 192.6875 149.246094 192.761719 150.046875 192.917969 C 150.847656 193.074219 151.625 193.308594 152.378906 193.617188 C 153.136719 193.925781 153.851562 194.304688 154.53125 194.753906 Z M 154.53125 194.753906 " fill-opacity="1" fill-rule="nonzero"/><path fill="#e9e8e4" d="M 118.886719 196.378906 C 119.425781 196.496094 119.953125 196.636719 120.476562 196.804688 C 121 196.972656 121.515625 197.167969 122.019531 197.386719 C 122.523438 197.605469 123.015625 197.847656 123.496094 198.113281 C 123.976562 198.378906 124.441406 198.667969 124.890625 198.980469 C 125.34375 199.292969 125.78125 199.628906 126.199219 199.984375 C 126.617188 200.339844 127.019531 200.714844 127.398438 201.109375 C 127.78125 201.503906 128.144531 201.914062 128.484375 202.34375 C 128.828125 202.773438 129.148438 203.222656 129.445312 203.683594 C 129.742188 204.144531 130.015625 204.621094 130.269531 205.109375 C 130.519531 205.597656 130.746094 206.097656 130.949219 206.605469 C 131.148438 207.117188 131.328125 207.636719 131.476562 208.164062 C 131.628906 208.695312 131.753906 209.226562 131.851562 209.769531 C 131.949219 210.308594 132.023438 210.851562 132.066406 211.398438 C 132.113281 211.949219 132.128906 212.496094 132.121094 213.046875 C 132.113281 213.59375 132.078125 214.140625 132.015625 214.6875 C 131.953125 215.234375 131.863281 215.773438 131.746094 216.3125 C 131.632812 216.847656 131.488281 217.378906 131.320312 217.902344 C 131.152344 218.425781 130.960938 218.9375 130.742188 219.441406 C 130.523438 219.945312 130.28125 220.4375 130.015625 220.917969 C 129.746094 221.398438 129.457031 221.863281 129.144531 222.316406 C 128.832031 222.769531 128.5 223.203125 128.144531 223.621094 C 127.789062 224.042969 127.414062 224.441406 127.019531 224.824219 C 126.625 225.207031 126.210938 225.566406 125.78125 225.910156 C 125.351562 226.25 124.90625 226.570312 124.445312 226.867188 C 123.984375 227.167969 123.507812 227.441406 123.019531 227.691406 C 122.53125 227.945312 122.03125 228.171875 121.519531 228.371094 C 121.007812 228.574219 120.492188 228.75 119.960938 228.902344 C 119.433594 229.050781 118.898438 229.175781 118.359375 229.277344 C 117.820312 229.375 117.273438 229.445312 116.726562 229.492188 C 116.179688 229.535156 115.632812 229.554688 115.082031 229.546875 C 114.535156 229.535156 113.984375 229.5 113.441406 229.4375 C 112.894531 229.375 112.351562 229.285156 111.816406 229.171875 C 111.277344 229.054688 110.75 228.914062 110.226562 228.746094 C 109.703125 228.578125 109.191406 228.382812 108.683594 228.164062 C 108.179688 227.949219 107.6875 227.707031 107.210938 227.4375 C 106.730469 227.171875 106.261719 226.882812 105.8125 226.570312 C 105.359375 226.257812 104.925781 225.921875 104.503906 225.566406 C 104.085938 225.214844 103.683594 224.839844 103.304688 224.445312 C 102.921875 224.046875 102.558594 223.636719 102.21875 223.207031 C 101.875 222.777344 101.554688 222.332031 101.257812 221.867188 C 100.960938 221.40625 100.6875 220.933594 100.433594 220.445312 C 100.183594 219.953125 99.957031 219.457031 99.753906 218.945312 C 99.554688 218.433594 99.375 217.914062 99.226562 217.386719 C 99.074219 216.859375 98.949219 216.324219 98.851562 215.78125 C 98.753906 215.242188 98.679688 214.699219 98.636719 214.152344 C 98.589844 213.605469 98.574219 213.054688 98.582031 212.507812 C 98.589844 211.957031 98.625 211.410156 98.6875 210.863281 C 98.75 210.316406 98.839844 209.777344 98.957031 209.238281 C 99.074219 208.703125 99.214844 208.171875 99.382812 207.648438 C 99.550781 207.125 99.742188 206.613281 99.960938 206.109375 C 100.179688 205.605469 100.421875 205.113281 100.6875 204.632812 C 100.957031 204.152344 101.246094 203.6875 101.558594 203.234375 C 101.871094 202.78125 102.203125 202.347656 102.558594 201.929688 C 102.914062 201.511719 103.289062 201.109375 103.683594 200.726562 C 104.078125 200.34375 104.492188 199.984375 104.921875 199.640625 C 105.351562 199.300781 105.796875 198.980469 106.257812 198.683594 C 106.71875 198.382812 107.195312 198.109375 107.683594 197.859375 C 108.171875 197.609375 108.671875 197.382812 109.183594 197.179688 C 109.695312 196.976562 110.214844 196.800781 110.742188 196.648438 C 111.269531 196.5 111.804688 196.375 112.34375 196.277344 C 112.882812 196.175781 113.429688 196.105469 113.976562 196.058594 C 114.523438 196.015625 115.070312 195.996094 115.621094 196.003906 C 116.171875 196.015625 116.71875 196.050781 117.261719 196.113281 C 117.808594 196.175781 118.351562 196.265625 118.886719 196.378906 Z M 118.886719 196.378906 " fill-opacity="1" fill-rule="nonzero"/><path fill="#38b6ff" d="M 145.054688 262.445312 C 144.441406 262.445312 143.90625 262.246094 143.441406 261.847656 C 143.191406 261.632812 142.988281 261.378906 142.839844 261.085938 C 142.6875 260.792969 142.597656 260.480469 142.570312 260.148438 C 142.542969 259.820312 142.582031 259.5 142.683594 259.183594 C 142.785156 258.871094 142.941406 258.585938 143.15625 258.335938 C 152.839844 246.949219 156.546875 236.867188 156.585938 236.765625 C 156.695312 236.457031 156.863281 236.179688 157.085938 235.933594 C 157.308594 235.6875 157.566406 235.496094 157.867188 235.355469 C 158.164062 235.214844 158.480469 235.136719 158.8125 235.121094 C 159.140625 235.105469 159.460938 235.152344 159.773438 235.261719 C 160.082031 235.375 160.363281 235.542969 160.605469 235.765625 C 160.851562 235.984375 161.042969 236.246094 161.183594 236.546875 C 161.328125 236.84375 161.40625 237.160156 161.421875 237.488281 C 161.4375 237.820312 161.390625 238.140625 161.277344 238.449219 C 161.121094 238.894531 157.273438 249.445312 146.957031 261.566406 C 146.457031 262.152344 145.824219 262.445312 145.054688 262.445312 Z M 145.054688 262.445312 " fill-opacity="1" fill-rule="nonzero"/><path fill="#e9e8e4" d="M 138.175781 295.347656 L 120.855469 281.824219 C 120.296875 281.386719 119.785156 280.898438 119.320312 280.359375 C 118.855469 279.820312 118.445312 279.242188 118.097656 278.625 C 117.746094 278.003906 117.460938 277.355469 117.234375 276.683594 C 117.011719 276.007812 116.859375 275.316406 116.769531 274.609375 C 116.683594 273.902344 116.667969 273.195312 116.71875 272.484375 C 116.773438 271.777344 116.894531 271.078125 117.082031 270.394531 C 117.273438 269.707031 117.527344 269.046875 117.847656 268.410156 C 118.167969 267.777344 118.546875 267.179688 118.984375 266.617188 L 126.738281 256.6875 C 127.175781 256.128906 127.664062 255.613281 128.203125 255.152344 C 128.738281 254.6875 129.320312 254.277344 129.9375 253.929688 C 130.558594 253.578125 131.203125 253.289062 131.878906 253.066406 C 132.554688 252.84375 133.246094 252.691406 133.953125 252.601562 C 134.660156 252.515625 135.367188 252.5 136.074219 252.550781 C 136.785156 252.605469 137.484375 252.726562 138.167969 252.914062 C 138.855469 253.105469 139.515625 253.359375 140.148438 253.679688 C 140.785156 254 141.382812 254.378906 141.945312 254.816406 L 143.695312 256.183594 C 144.207031 256.582031 144.695312 257.003906 145.164062 257.453125 C 145.632812 257.898438 146.078125 258.367188 146.5 258.855469 C 146.921875 259.34375 147.320312 259.855469 147.691406 260.382812 C 148.066406 260.910156 148.410156 261.457031 148.730469 262.019531 C 149.046875 262.582031 149.339844 263.160156 149.601562 263.753906 C 149.863281 264.34375 150.09375 264.945312 150.296875 265.558594 C 150.5 266.175781 150.671875 266.796875 150.8125 267.429688 C 150.957031 268.058594 151.066406 268.695312 151.144531 269.335938 C 151.222656 269.980469 151.269531 270.625 151.285156 271.269531 C 151.300781 271.917969 151.285156 272.5625 151.238281 273.207031 C 151.191406 273.851562 151.113281 274.492188 151 275.132812 C 150.890625 275.769531 150.75 276.398438 150.578125 277.023438 C 150.402344 277.644531 150.199219 278.257812 149.96875 278.863281 C 149.734375 279.464844 149.472656 280.054688 149.183594 280.632812 C 148.890625 281.210938 148.574219 281.773438 148.226562 282.320312 C 147.878906 282.867188 147.507812 283.394531 147.109375 283.902344 Z M 138.175781 295.347656 " fill-opacity="1" fill-rule="nonzero"/><path fill="#38b6ff" d="M 138.269531 295.421875 L 122.085938 282.789062 C 122.390625 282.402344 122.730469 282.042969 123.101562 281.722656 C 123.476562 281.398438 123.878906 281.117188 124.308594 280.875 C 124.738281 280.632812 125.1875 280.433594 125.65625 280.277344 C 126.125 280.121094 126.601562 280.015625 127.09375 279.953125 C 127.582031 279.894531 128.074219 279.882812 128.566406 279.917969 C 129.058594 279.957031 129.542969 280.039062 130.015625 280.171875 C 130.492188 280.304688 130.949219 280.480469 131.390625 280.703125 C 131.832031 280.925781 132.246094 281.1875 132.636719 281.492188 L 142.894531 289.5 C 143.285156 289.804688 143.605469 290.175781 143.851562 290.609375 C 144.097656 291.042969 144.25 291.507812 144.3125 292 C 144.371094 292.496094 144.335938 292.984375 144.203125 293.464844 C 144.070312 293.945312 143.851562 294.382812 143.542969 294.773438 C 143.238281 295.167969 142.867188 295.484375 142.433594 295.730469 C 142 295.976562 141.535156 296.128906 141.039062 296.191406 C 140.546875 296.253906 140.058594 296.214844 139.578125 296.082031 C 139.097656 295.949219 138.660156 295.730469 138.269531 295.421875 Z M 138.269531 295.421875 " fill-opacity="1" fill-rule="nonzero"/><path fill="#38b6ff" d="M 280.585938 207.3125 C 279.277344 205.496094 276.914062 204.960938 275.324219 206.121094 L 268.835938 210.800781 C 267.230469 211.957031 266.996094 214.363281 268.304688 216.179688 C 269.613281 217.996094 271.972656 218.527344 273.566406 217.371094 L 276.8125 215.035156 L 280.054688 212.691406 C 281.65625 211.535156 281.890625 209.125 280.585938 207.3125 Z M 280.585938 207.3125 " fill-opacity="1" fill-rule="nonzero"/><path fill="#38b6ff" d="M 276.140625 201.160156 C 274.835938 199.34375 272.46875 198.8125 270.878906 199.96875 L 264.382812 204.652344 C 262.78125 205.808594 262.542969 208.21875 263.851562 210.03125 C 265.160156 211.847656 267.519531 212.378906 269.113281 211.222656 L 272.359375 208.882812 L 275.601562 206.542969 C 277.214844 205.378906 277.453125 202.972656 276.140625 201.160156 Z M 276.140625 201.160156 " fill-opacity="1" fill-rule="nonzero"/><path fill="#38b6ff" d="M 263.53125 194.226562 C 262.222656 192.410156 259.925781 191.828125 258.40625 192.925781 L 252.261719 197.359375 C 250.757812 198.457031 250.574219 200.816406 251.882812 202.621094 C 253.191406 204.4375 255.488281 205.019531 257.007812 203.921875 L 260.082031 201.703125 L 263.152344 199.484375 C 264.667969 198.402344 264.839844 196.042969 263.53125 194.226562 Z M 263.53125 194.226562 " fill-opacity="1" fill-rule="nonzero"/><path fill="#38b6ff" d="M 248.0625 214.421875 C 247.3125 214.175781 246.609375 214.265625 245.945312 214.691406 C 238.054688 219.753906 232.101562 218.722656 232.042969 218.710938 C 231.710938 218.628906 231.378906 218.617188 231.046875 218.671875 C 230.710938 218.726562 230.402344 218.84375 230.117188 219.027344 C 229.828125 219.207031 229.589844 219.4375 229.398438 219.714844 C 229.207031 219.996094 229.074219 220.300781 229.007812 220.632812 C 228.9375 220.964844 228.9375 221.296875 229.003906 221.628906 C 229.074219 221.960938 229.203125 222.265625 229.394531 222.542969 C 229.585938 222.824219 229.824219 223.054688 230.109375 223.238281 C 230.394531 223.417969 230.703125 223.539062 231.039062 223.59375 C 232.816406 223.875 234.59375 223.875 236.371094 223.59375 C 240.414062 223.0625 244.636719 221.433594 248.632812 218.886719 C 249.039062 218.625 249.34375 218.277344 249.546875 217.839844 C 249.75 217.40625 249.824219 216.949219 249.761719 216.46875 C 249.699219 215.992188 249.515625 215.566406 249.210938 215.195312 C 248.902344 214.824219 248.519531 214.5625 248.0625 214.414062 Z M 248.0625 214.421875 " fill-opacity="1" fill-rule="nonzero"/><path fill="#d6d6d4" d="M 234.246094 214.5625 C 234.671875 215.253906 235.023438 215.980469 235.304688 216.746094 C 235.582031 217.507812 235.789062 218.289062 235.914062 219.09375 C 236.039062 219.894531 236.085938 220.703125 236.054688 221.515625 C 236.023438 222.328125 235.910156 223.128906 235.71875 223.917969 C 235.53125 224.707031 235.265625 225.472656 234.925781 226.210938 C 234.582031 226.945312 234.171875 227.644531 233.695312 228.300781 C 233.21875 228.957031 232.679688 229.5625 232.082031 230.113281 C 231.484375 230.664062 230.839844 231.152344 230.148438 231.578125 C 229.453125 232 228.726562 232.351562 227.964844 232.632812 C 227.199219 232.914062 226.417969 233.117188 225.617188 233.246094 C 224.8125 233.371094 224.003906 233.417969 223.195312 233.386719 C 222.382812 233.351562 221.582031 233.242188 220.789062 233.050781 C 220 232.859375 219.238281 232.59375 218.5 232.253906 C 217.761719 231.914062 217.0625 231.503906 216.40625 231.027344 C 215.75 230.546875 215.144531 230.011719 214.59375 229.414062 C 214.042969 228.816406 213.554688 228.171875 213.132812 227.476562 C 212.707031 226.785156 212.355469 226.058594 212.074219 225.292969 C 211.792969 224.53125 211.589844 223.75 211.464844 222.945312 C 211.335938 222.144531 211.289062 221.335938 211.324219 220.523438 C 211.355469 219.710938 211.464844 218.910156 211.65625 218.121094 C 211.847656 217.332031 212.113281 216.566406 212.453125 215.828125 C 212.792969 215.09375 213.203125 214.394531 213.679688 213.738281 C 214.160156 213.082031 214.699219 212.476562 215.292969 211.925781 C 215.890625 211.375 216.535156 210.886719 217.230469 210.460938 C 217.921875 210.039062 218.652344 209.6875 219.414062 209.40625 C 220.175781 209.125 220.960938 208.921875 221.761719 208.792969 C 222.566406 208.667969 223.371094 208.621094 224.183594 208.652344 C 224.996094 208.6875 225.796875 208.796875 226.585938 208.988281 C 227.375 209.179688 228.140625 209.441406 228.878906 209.785156 C 229.617188 210.125 230.3125 210.535156 230.96875 211.011719 C 231.628906 211.492188 232.230469 212.027344 232.78125 212.625 C 233.335938 213.222656 233.820312 213.867188 234.246094 214.5625 Z M 234.246094 214.5625 " fill-opacity="1" fill-rule="nonzero"/><path fill="#d6d6d4" d="M 266 223.476562 C 266 224.027344 265.972656 224.574219 265.917969 225.121094 C 265.863281 225.667969 265.785156 226.210938 265.675781 226.75 C 265.570312 227.289062 265.4375 227.820312 265.277344 228.347656 C 265.117188 228.871094 264.933594 229.390625 264.722656 229.898438 C 264.511719 230.40625 264.277344 230.898438 264.019531 231.382812 C 263.757812 231.871094 263.476562 232.339844 263.171875 232.796875 C 262.867188 233.253906 262.539062 233.695312 262.191406 234.117188 C 261.84375 234.542969 261.476562 234.949219 261.085938 235.339844 C 260.699219 235.726562 260.292969 236.09375 259.867188 236.445312 C 259.441406 236.792969 259 237.117188 258.546875 237.425781 C 258.089844 237.730469 257.617188 238.011719 257.132812 238.269531 C 256.648438 238.527344 256.152344 238.761719 255.644531 238.972656 C 255.136719 239.183594 254.621094 239.367188 254.09375 239.527344 C 253.570312 239.6875 253.039062 239.820312 252.5 239.929688 C 251.960938 240.035156 251.417969 240.117188 250.871094 240.167969 C 250.324219 240.222656 249.777344 240.25 249.226562 240.25 C 248.679688 240.25 248.128906 240.222656 247.582031 240.167969 C 247.035156 240.117188 246.492188 240.035156 245.953125 239.929688 C 245.417969 239.820312 244.882812 239.6875 244.359375 239.527344 C 243.832031 239.367188 243.316406 239.183594 242.808594 238.972656 C 242.300781 238.761719 241.804688 238.527344 241.320312 238.269531 C 240.835938 238.011719 240.367188 237.730469 239.910156 237.425781 C 239.453125 237.117188 239.011719 236.792969 238.585938 236.445312 C 238.164062 236.09375 237.753906 235.726562 237.367188 235.339844 C 236.980469 234.949219 236.609375 234.542969 236.261719 234.117188 C 235.914062 233.695312 235.585938 233.253906 235.28125 232.796875 C 234.976562 232.339844 234.695312 231.871094 234.433594 231.382812 C 234.175781 230.898438 233.941406 230.40625 233.730469 229.898438 C 233.519531 229.390625 233.335938 228.871094 233.175781 228.347656 C 233.019531 227.820312 232.882812 227.289062 232.777344 226.75 C 232.671875 226.210938 232.589844 225.667969 232.535156 225.121094 C 232.480469 224.574219 232.453125 224.027344 232.453125 223.476562 C 232.453125 222.929688 232.480469 222.382812 232.535156 221.835938 C 232.589844 221.289062 232.671875 220.746094 232.777344 220.207031 C 232.882812 219.667969 233.019531 219.136719 233.175781 218.609375 C 233.335938 218.085938 233.519531 217.566406 233.730469 217.058594 C 233.941406 216.550781 234.175781 216.054688 234.433594 215.570312 C 234.695312 215.085938 234.976562 214.617188 235.28125 214.160156 C 235.585938 213.703125 235.914062 213.261719 236.261719 212.839844 C 236.609375 212.414062 236.980469 212.007812 237.367188 211.617188 C 237.753906 211.230469 238.164062 210.863281 238.585938 210.511719 C 239.011719 210.164062 239.453125 209.839844 239.910156 209.53125 C 240.367188 209.226562 240.835938 208.945312 241.320312 208.6875 C 241.804688 208.429688 242.300781 208.191406 242.808594 207.984375 C 243.316406 207.773438 243.832031 207.589844 244.359375 207.429688 C 244.882812 207.269531 245.417969 207.136719 245.953125 207.027344 C 246.492188 206.921875 247.035156 206.839844 247.582031 206.789062 C 248.128906 206.734375 248.679688 206.707031 249.226562 206.707031 C 249.777344 206.707031 250.324219 206.734375 250.871094 206.789062 C 251.417969 206.839844 251.960938 206.921875 252.5 207.027344 C 253.039062 207.136719 253.570312 207.269531 254.097656 207.429688 C 254.621094 207.589844 255.136719 207.773438 255.644531 207.984375 C 256.152344 208.191406 256.648438 208.429688 257.132812 208.6875 C 257.617188 208.945312 258.089844 209.226562 258.546875 209.53125 C 259 209.839844 259.441406 210.164062 259.867188 210.511719 C 260.292969 210.863281 260.699219 211.230469 261.085938 211.617188 C 261.476562 212.007812 261.84375 212.414062 262.191406 212.839844 C 262.539062 213.261719 262.867188 213.703125 263.171875 214.160156 C 263.476562 214.617188 263.757812 215.085938 264.019531 215.570312 C 264.277344 216.054688 264.511719 216.550781 264.722656 217.058594 C 264.933594 217.566406 265.117188 218.085938 265.277344 218.609375 C 265.4375 219.136719 265.570312 219.667969 265.675781 220.207031 C 265.785156 220.746094 265.863281 221.289062 265.917969 221.835938 C 265.972656 222.382812 266 222.929688 266 223.476562 Z M 266 223.476562 " fill-opacity="1" fill-rule="nonzero"/><path fill="#e9e8e4" d="M 216.136719 206.789062 C 216.136719 206.789062 210.292969 231.042969 201.335938 244.65625 C 200.949219 245.242188 200.496094 245.769531 199.96875 246.234375 C 199.445312 246.703125 198.867188 247.09375 198.238281 247.40625 C 197.609375 247.71875 196.949219 247.945312 196.261719 248.082031 C 195.570312 248.21875 194.875 248.265625 194.175781 248.21875 C 186.683594 247.710938 170.875 245.859375 157.679688 239.125 C 157 238.78125 156.386719 238.347656 155.832031 237.824219 C 155.28125 237.300781 154.8125 236.710938 154.433594 236.050781 C 154.050781 235.394531 153.769531 234.695312 153.589844 233.957031 C 153.414062 233.21875 153.339844 232.46875 153.378906 231.707031 C 153.886719 220.789062 155.632812 194.960938 161.023438 190.675781 C 172.246094 181.726562 216.136719 206.789062 216.136719 206.789062 Z M 216.136719 206.789062 " fill-opacity="1" fill-rule="nonzero"/><path fill="#38b6ff" d="M 151.144531 214.574219 L 155.957031 196.136719 C 156.039062 195.824219 156.148438 195.519531 156.292969 195.226562 C 156.433594 194.9375 156.601562 194.660156 156.796875 194.402344 C 156.992188 194.144531 157.210938 193.90625 157.457031 193.691406 C 157.699219 193.476562 157.960938 193.285156 158.238281 193.121094 C 158.519531 192.957031 158.8125 192.820312 159.117188 192.714844 C 159.425781 192.609375 159.738281 192.535156 160.0625 192.488281 C 160.382812 192.445312 160.707031 192.433594 161.027344 192.453125 C 161.351562 192.472656 161.671875 192.523438 161.984375 192.601562 L 213.242188 205.984375 C 213.554688 206.066406 213.859375 206.175781 214.148438 206.320312 C 214.441406 206.460938 214.71875 206.628906 214.976562 206.824219 C 215.234375 207.019531 215.472656 207.238281 215.6875 207.484375 C 215.902344 207.726562 216.09375 207.988281 216.257812 208.265625 C 216.421875 208.546875 216.554688 208.839844 216.664062 209.144531 C 216.769531 209.453125 216.84375 209.765625 216.886719 210.089844 C 216.933594 210.410156 216.945312 210.730469 216.925781 211.054688 C 216.90625 211.378906 216.855469 211.699219 216.773438 212.011719 L 211.960938 230.449219 C 211.878906 230.761719 211.769531 231.066406 211.628906 231.355469 C 211.484375 231.648438 211.316406 231.925781 211.121094 232.183594 C 210.925781 232.441406 210.707031 232.679688 210.464844 232.894531 C 210.21875 233.109375 209.960938 233.300781 209.679688 233.464844 C 209.398438 233.628906 209.105469 233.761719 208.800781 233.871094 C 208.492188 233.976562 208.179688 234.050781 207.859375 234.09375 C 207.535156 234.140625 207.214844 234.152344 206.890625 234.132812 C 206.566406 234.113281 206.246094 234.0625 205.933594 233.980469 L 154.675781 220.601562 C 154.363281 220.519531 154.058594 220.410156 153.769531 220.265625 C 153.476562 220.125 153.199219 219.957031 152.941406 219.761719 C 152.683594 219.566406 152.445312 219.34375 152.230469 219.101562 C 152.015625 218.859375 151.824219 218.597656 151.660156 218.320312 C 151.496094 218.039062 151.363281 217.746094 151.257812 217.4375 C 151.148438 217.132812 151.074219 216.820312 151.03125 216.496094 C 150.984375 216.175781 150.972656 215.851562 150.992188 215.527344 C 151.011719 215.207031 151.0625 214.886719 151.144531 214.574219 Z M 151.144531 214.574219 " fill-opacity="1" fill-rule="nonzero"/><path fill="#d6d6d4" d="M 224.84375 90.183594 C 225.089844 90.671875 225.3125 91.171875 225.507812 91.679688 C 225.707031 92.191406 225.878906 92.710938 226.027344 93.238281 C 226.171875 93.761719 226.292969 94.296875 226.386719 94.835938 C 226.484375 95.375 226.550781 95.914062 226.589844 96.460938 C 226.632812 97.007812 226.648438 97.550781 226.632812 98.097656 C 226.621094 98.644531 226.582031 99.191406 226.515625 99.734375 C 226.449219 100.277344 226.359375 100.816406 226.238281 101.347656 C 226.121094 101.882812 225.976562 102.410156 225.804688 102.929688 C 225.632812 103.449219 225.4375 103.960938 225.21875 104.460938 C 224.996094 104.960938 224.753906 105.449219 224.484375 105.925781 C 224.214844 106.402344 223.921875 106.863281 223.609375 107.3125 C 223.296875 107.757812 222.960938 108.191406 222.601562 108.605469 C 222.246094 109.019531 221.871094 109.417969 221.476562 109.792969 C 221.078125 110.171875 220.667969 110.53125 220.238281 110.867188 C 219.804688 111.203125 219.359375 111.519531 218.898438 111.8125 C 218.4375 112.105469 217.960938 112.375 217.472656 112.625 C 216.984375 112.871094 216.484375 113.09375 215.976562 113.289062 C 215.464844 113.488281 214.949219 113.660156 214.421875 113.808594 C 213.894531 113.953125 213.359375 114.074219 212.824219 114.167969 C 212.285156 114.261719 211.742188 114.332031 211.195312 114.371094 C 210.652344 114.414062 210.105469 114.429688 209.558594 114.414062 C 209.011719 114.402344 208.464844 114.363281 207.921875 114.296875 C 207.378906 114.230469 206.84375 114.140625 206.308594 114.019531 C 205.773438 113.902344 205.246094 113.757812 204.726562 113.585938 C 204.207031 113.414062 203.699219 113.21875 203.199219 113 C 202.695312 112.777344 202.207031 112.535156 201.730469 112.265625 C 201.257812 111.996094 200.792969 111.703125 200.347656 111.390625 C 199.898438 111.078125 199.46875 110.742188 199.050781 110.382812 C 198.636719 110.027344 198.242188 109.652344 197.863281 109.257812 C 197.484375 108.859375 197.128906 108.449219 196.789062 108.015625 C 196.453125 107.585938 196.136719 107.140625 195.84375 106.679688 C 195.550781 106.21875 195.28125 105.742188 195.035156 105.253906 C 194.789062 104.765625 194.566406 104.265625 194.367188 103.757812 C 194.167969 103.246094 193.996094 102.730469 193.851562 102.203125 C 193.703125 101.675781 193.582031 101.140625 193.488281 100.601562 C 193.394531 100.066406 193.328125 99.523438 193.285156 98.976562 C 193.242188 98.433594 193.230469 97.886719 193.242188 97.339844 C 193.253906 96.792969 193.292969 96.246094 193.359375 95.703125 C 193.425781 95.160156 193.519531 94.621094 193.636719 94.089844 C 193.757812 93.554688 193.902344 93.027344 194.070312 92.507812 C 194.242188 91.988281 194.4375 91.480469 194.660156 90.976562 C 194.878906 90.476562 195.125 89.988281 195.394531 89.511719 C 195.660156 89.035156 195.953125 88.574219 196.265625 88.128906 C 196.582031 87.679688 196.917969 87.246094 197.273438 86.832031 C 197.628906 86.417969 198.003906 86.023438 198.402344 85.644531 C 198.796875 85.265625 199.210938 84.910156 199.640625 84.570312 C 200.070312 84.234375 200.515625 83.917969 200.980469 83.625 C 201.441406 83.332031 201.914062 83.0625 202.402344 82.816406 C 202.890625 82.566406 203.390625 82.347656 203.898438 82.148438 C 204.410156 81.949219 204.929688 81.777344 205.457031 81.632812 C 205.984375 81.484375 206.515625 81.363281 207.054688 81.269531 C 207.59375 81.175781 208.136719 81.105469 208.679688 81.066406 C 209.226562 81.023438 209.773438 81.011719 210.320312 81.023438 C 210.867188 81.035156 211.410156 81.074219 211.953125 81.140625 C 212.496094 81.207031 213.035156 81.300781 213.570312 81.417969 C 214.101562 81.535156 214.628906 81.679688 215.148438 81.851562 C 215.667969 82.023438 216.179688 82.21875 216.679688 82.4375 C 217.179688 82.660156 217.667969 82.90625 218.144531 83.171875 C 218.621094 83.441406 219.082031 83.734375 219.53125 84.046875 C 219.976562 84.363281 220.410156 84.699219 220.824219 85.054688 C 221.238281 85.410156 221.636719 85.785156 222.011719 86.183594 C 222.390625 86.578125 222.75 86.992188 223.085938 87.421875 C 223.421875 87.851562 223.738281 88.296875 224.03125 88.757812 C 224.324219 89.222656 224.59375 89.695312 224.84375 90.183594 Z M 224.84375 90.183594 " fill-opacity="1" fill-rule="nonzero"/><path fill="#d6d6d4" d="M 252.84375 192.734375 L 270.65625 194.34375 C 271.015625 194.375 271.375 194.375 271.734375 194.339844 C 272.09375 194.308594 272.449219 194.242188 272.796875 194.144531 C 273.144531 194.046875 273.480469 193.917969 273.800781 193.757812 C 274.125 193.597656 274.433594 193.410156 274.722656 193.191406 C 275.011719 192.976562 275.277344 192.734375 275.523438 192.46875 C 275.769531 192.203125 275.988281 191.917969 276.183594 191.613281 C 276.375 191.308594 276.539062 190.988281 276.671875 190.652344 C 276.804688 190.316406 276.910156 189.972656 276.980469 189.617188 L 280.890625 170.078125 C 281.027344 169.414062 281.042969 168.75 280.949219 168.082031 C 280.855469 167.414062 280.652344 166.78125 280.335938 166.179688 C 280.023438 165.582031 279.621094 165.054688 279.128906 164.59375 C 278.632812 164.132812 278.078125 163.769531 277.457031 163.5 L 260.199219 155.984375 Z M 252.84375 192.734375 " fill-opacity="1" fill-rule="nonzero"/><path fill="#d6d6d4" d="M 136.425781 169.414062 L 119.367188 164.039062 C 119.023438 163.929688 118.691406 163.789062 118.371094 163.621094 C 118.054688 163.449219 117.753906 163.253906 117.46875 163.027344 C 117.1875 162.804688 116.925781 162.554688 116.6875 162.285156 C 116.453125 162.011719 116.242188 161.71875 116.058594 161.40625 C 115.871094 161.097656 115.71875 160.773438 115.59375 160.433594 C 115.46875 160.09375 115.378906 159.746094 115.316406 159.390625 C 115.257812 159.03125 115.230469 158.675781 115.234375 158.3125 C 115.238281 157.953125 115.277344 157.59375 115.347656 157.238281 L 119.257812 137.699219 C 119.390625 137.035156 119.632812 136.414062 119.976562 135.835938 C 120.324219 135.253906 120.753906 134.75 121.273438 134.316406 C 121.792969 133.886719 122.367188 133.554688 123.003906 133.320312 C 123.636719 133.085938 124.289062 132.960938 124.964844 132.953125 L 143.785156 132.660156 Z M 136.425781 169.414062 " fill-opacity="1" fill-rule="nonzero"/><path fill="#e9e8e4" d="M 127.316406 151.203125 C 120.125 187.105469 149.148438 206.070312 188.070312 213.847656 C 226.992188 221.621094 261.074219 215.351562 268.261719 179.4375 C 275.449219 143.527344 250.910156 102.222656 211.988281 94.429688 C 173.066406 86.632812 134.492188 115.304688 127.316406 151.203125 Z M 127.316406 151.203125 " fill-opacity="1" fill-rule="nonzero"/><path fill="#38b6ff" d="M 142.894531 154.902344 C 137.304688 182.808594 160.796875 192.828125 191.066406 198.890625 C 221.339844 204.953125 246.855469 204.757812 252.460938 176.839844 C 258.070312 148.925781 238.964844 116.824219 208.714844 110.765625 C 178.46875 104.703125 148.484375 126.996094 142.894531 154.902344 Z M 142.894531 154.902344 " fill-opacity="1" fill-rule="nonzero"/><path fill="#e9e8e4" d="M 207.8125 167.558594 C 207.703125 168.074219 207.644531 168.597656 207.640625 169.125 C 207.632812 169.65625 207.679688 170.179688 207.777344 170.695312 C 207.875 171.214844 208.019531 171.722656 208.21875 172.210938 C 208.417969 172.699219 208.660156 173.167969 208.949219 173.609375 C 209.242188 174.046875 209.570312 174.457031 209.941406 174.832031 C 210.316406 175.207031 210.71875 175.542969 211.15625 175.839844 C 211.59375 176.136719 212.058594 176.382812 212.546875 176.589844 C 213.03125 176.792969 213.535156 176.945312 214.054688 177.050781 C 214.570312 177.152344 215.09375 177.203125 215.621094 177.203125 C 216.152344 177.203125 216.671875 177.152344 217.191406 177.046875 C 217.710938 176.945312 218.210938 176.789062 218.699219 176.585938 C 219.1875 176.382812 219.648438 176.132812 220.085938 175.835938 C 220.523438 175.542969 220.929688 175.207031 221.300781 174.832031 C 221.671875 174.453125 222.003906 174.046875 222.292969 173.605469 C 222.582031 173.164062 222.824219 172.695312 223.023438 172.207031 C 223.222656 171.71875 223.367188 171.210938 223.464844 170.691406 C 224.332031 166.371094 222.019531 159.71875 217.695312 158.855469 C 213.375 157.992188 208.683594 163.238281 207.8125 167.558594 Z M 207.8125 167.558594 " fill-opacity="1" fill-rule="nonzero"/><path fill="#e9e8e4" d="M 168.910156 159.769531 C 168.816406 160.28125 168.769531 160.796875 168.773438 161.316406 C 168.777344 161.835938 168.835938 162.351562 168.941406 162.859375 C 169.046875 163.367188 169.199219 163.863281 169.402344 164.339844 C 169.601562 164.820312 169.851562 165.273438 170.140625 165.707031 C 170.433594 166.136719 170.761719 166.535156 171.128906 166.902344 C 171.5 167.269531 171.902344 167.597656 172.332031 167.882812 C 172.765625 168.171875 173.222656 168.414062 173.703125 168.613281 C 174.183594 168.8125 174.679688 168.964844 175.1875 169.066406 C 175.699219 169.167969 176.214844 169.21875 176.734375 169.222656 C 177.253906 169.222656 177.769531 169.175781 178.277344 169.074219 C 178.789062 168.976562 179.285156 168.828125 179.765625 168.632812 C 180.25 168.4375 180.707031 168.195312 181.140625 167.910156 C 181.574219 167.625 181.976562 167.296875 182.347656 166.933594 C 182.71875 166.570312 183.050781 166.171875 183.347656 165.742188 C 183.640625 165.3125 183.886719 164.859375 184.09375 164.382812 C 184.296875 163.90625 184.453125 163.410156 184.5625 162.902344 C 185.425781 158.582031 183.117188 151.929688 178.792969 151.066406 C 174.472656 150.199219 169.777344 155.441406 168.910156 159.769531 Z M 168.910156 159.769531 " fill-opacity="1" fill-rule="nonzero"/><path fill="#e9e8e4" d="M 197.136719 175.714844 C 194.484375 175.714844 190.996094 174.898438 187.28125 171.832031 L 188.546875 170.292969 C 195.230469 175.808594 200.886719 173.035156 201.125 172.925781 L 202.042969 174.695312 C 200.484375 175.40625 198.847656 175.746094 197.136719 175.714844 Z M 197.136719 175.714844 " fill-opacity="1" fill-rule="nonzero"/></svg>