<svg xmlns="http://www.w3.org/2000/svg" xmlns:xlink="http://www.w3.org/1999/xlink" width="500" zoomAndPan="magnify" viewBox="0 0 375 374.999991" height="500" preserveAspectRatio="xMidYMid meet" version="1.0"><defs><clipPath id="4ffdab7f54"><path d="M 61.351562 73.738281 L 313.351562 73.738281 L 313.351562 300.988281 L 61.351562 300.988281 Z M 61.351562 73.738281 " clip-rule="nonzero"/></clipPath></defs><path fill="#fcb23a" d="M 306.042969 277.085938 C 310.503906 281.894531 310.222656 289.414062 305.414062 293.878906 C 303.128906 296 300.226562 297.050781 297.335938 297.050781 C 294.144531 297.050781 290.960938 295.773438 288.621094 293.25 L 247.71875 249.175781 C 251.113281 247.214844 254.34375 244.847656 257.335938 242.070312 C 260.332031 239.292969 262.933594 236.25 265.140625 233.011719 Z M 306.042969 277.085938 " fill-opacity="1" fill-rule="evenodd"/><path fill="#ffe45e" d="M 249.015625 223.664062 C 258.738281 210.535156 258.058594 191.945312 246.539062 179.53125 C 233.53125 165.515625 211.621094 164.695312 197.605469 177.703125 C 184.9375 189.457031 183.050781 208.472656 192.394531 222.371094 C 193.394531 223.859375 194.519531 225.289062 195.777344 226.640625 C 208.785156 240.660156 230.695312 241.476562 244.710938 228.46875 C 246.320312 226.976562 247.753906 225.367188 249.015625 223.664062 Z M 260.140625 166.910156 C 277.34375 185.445312 278.804688 212.964844 265.140625 233.011719 C 262.933594 236.246094 260.332031 239.292969 257.335938 242.070312 C 254.339844 244.847656 251.113281 247.214844 247.71875 249.175781 C 229.90625 259.464844 207.546875 258.503906 190.671875 246.679688 C 187.644531 244.554688 184.792969 242.082031 182.175781 239.265625 C 177.347656 234.0625 173.757812 228.148438 171.398438 221.894531 C 163.988281 202.265625 168.65625 179.253906 184.984375 164.101562 C 206.003906 144.597656 238.578125 145.332031 258.703125 165.417969 C 259.191406 165.902344 259.667969 166.398438 260.140625 166.910156 Z M 260.140625 166.910156 " fill-opacity="1" fill-rule="evenodd"/><path fill="#48d9f8" d="M 125.320312 232.632812 L 124.621094 239.691406 C 122.832031 248.320312 112.429688 246.671875 113.40625 238.890625 C 113.40625 238.890625 114.167969 231.765625 125.320312 232.632812 Z M 125.320312 232.632812 " fill-opacity="1" fill-rule="evenodd"/><path fill="#48d9f8" d="M 125.320312 232.632812 C 114.167969 231.765625 113.40625 238.890625 113.40625 238.890625 C 112.429688 246.671875 122.832031 248.320312 124.621094 239.691406 Z M 146.464844 144.757812 L 146.464844 221.324219 L 171.398438 221.894531 C 173.757812 228.148438 177.34375 234.0625 182.175781 239.265625 C 184.789062 242.082031 187.644531 244.554688 190.671875 246.679688 L 96.699219 267.464844 L 65.570312 126.75 L 146.464844 108.859375 Z M 146.464844 144.757812 " fill-opacity="1" fill-rule="evenodd"/><path fill="#34d5f8" d="M 258.703125 103.753906 L 229.847656 106.945312 L 230.628906 77.667969 Z M 258.703125 103.753906 " fill-opacity="1" fill-rule="evenodd"/><path fill="#caf0f8" d="M 246.542969 179.53125 C 258.058594 191.941406 258.738281 210.535156 249.015625 223.664062 L 192.394531 222.371094 C 183.050781 208.472656 184.941406 189.457031 197.605469 177.703125 C 211.621094 164.695312 233.53125 165.515625 246.542969 179.53125 Z M 246.542969 179.53125 " fill-opacity="1" fill-rule="evenodd"/><path fill="#caf0f8" d="M 258.703125 165.417969 C 238.578125 145.332031 206.003906 144.597656 184.980469 164.101562 C 168.652344 179.253906 163.988281 202.265625 171.398438 221.894531 L 146.464844 221.324219 L 146.464844 77.667969 L 230.628906 77.667969 L 229.847656 106.945312 L 258.703125 103.753906 Z M 258.703125 165.417969 " fill-opacity="1" fill-rule="evenodd"/><path fill="#333333" d="M 249.421875 176.859375 C 242.414062 169.3125 232.890625 164.941406 222.597656 164.558594 C 212.304688 164.171875 202.480469 167.820312 194.929688 174.824219 C 187.382812 181.832031 183.011719 191.355469 182.628906 201.648438 C 182.246094 211.941406 185.890625 221.765625 192.894531 229.3125 C 199.902344 236.863281 209.429688 241.230469 219.71875 241.617188 C 220.214844 241.632812 220.703125 241.644531 221.195312 241.644531 C 230.945312 241.640625 240.199219 238.019531 247.386719 231.347656 C 254.9375 224.34375 259.304688 214.816406 259.691406 204.523438 C 260.074219 194.234375 256.425781 184.410156 249.421875 176.859375 Z M 190.480469 201.941406 C 190.789062 193.746094 194.265625 186.164062 200.277344 180.585938 C 206.277344 175.003906 214.15625 172.097656 222.304688 172.410156 C 230.5 172.71875 238.082031 176.195312 243.660156 182.207031 C 249.238281 188.214844 252.140625 196.039062 251.835938 204.234375 C 251.628906 209.816406 249.945312 215.113281 246.992188 219.6875 L 194.59375 218.492188 C 191.699219 213.523438 190.261719 207.828125 190.480469 201.941406 Z M 221.171875 233.769531 C 214.078125 233.769531 207 231.332031 201.316406 226.507812 L 239.914062 227.386719 C 234.394531 231.65625 227.777344 233.769531 221.171875 233.769531 Z M 221.171875 233.769531 " fill-opacity="1" fill-rule="evenodd"/><g clip-path="url(#4ffdab7f54)"><path fill="#333333" d="M 308.921875 274.410156 L 270.089844 232.570312 C 271.257812 230.628906 272.316406 228.617188 273.253906 226.535156 C 276.28125 219.800781 277.957031 212.628906 278.234375 205.21875 C 278.511719 197.804688 277.375 190.527344 274.855469 183.585938 C 272.25 176.398438 268.265625 169.886719 263.023438 164.238281 C 262.894531 164.097656 262.761719 163.960938 262.632812 163.824219 L 262.632812 103.753906 C 262.632812 102.695312 262.191406 101.648438 261.421875 100.917969 C 260.800781 100.425781 233.386719 74.683594 232.710938 74.335938 C 232.105469 73.949219 231.359375 73.734375 230.628906 73.738281 L 146.464844 73.738281 C 144.292969 73.738281 142.53125 75.496094 142.53125 77.667969 L 142.53125 105.703125 L 64.722656 122.914062 C 63.703125 123.136719 62.816406 123.757812 62.257812 124.636719 C 61.699219 125.515625 61.507812 126.578125 61.734375 127.597656 L 92.859375 268.3125 C 93.273438 270.382812 95.5 271.796875 97.546875 271.300781 L 189.867188 250.878906 C 206.53125 261.988281 229.089844 263.253906 246.910156 254.082031 L 285.738281 295.921875 C 288.851562 299.273438 293.085938 300.972656 297.335938 300.972656 C 301.1875 300.972656 305.046875 299.578125 308.085938 296.757812 C 311.183594 293.882812 312.976562 289.976562 313.132812 285.757812 C 313.289062 281.535156 311.792969 277.507812 308.921875 274.410156 Z M 234.324219 86.464844 L 249.742188 100.792969 L 233.898438 102.542969 Z M 226.59375 81.597656 L 225.917969 106.839844 C 225.800781 109.148438 227.992188 111.160156 230.28125 110.847656 L 254.773438 108.140625 L 254.773438 156.898438 C 251.609375 154.59375 248.214844 152.617188 244.609375 150.996094 C 231.105469 144.867188 215.152344 144.320312 201.269531 149.539062 L 174.554688 149.539062 C 172.386719 149.539062 170.625 151.296875 170.625 153.46875 C 170.625 155.636719 172.386719 157.398438 174.554688 157.398438 L 186.882812 157.398438 C 185.300781 158.585938 183.777344 159.863281 182.308594 161.222656 C 176.65625 166.46875 172.203125 172.664062 169.066406 179.636719 C 166.035156 186.371094 164.359375 193.546875 164.082031 200.957031 C 163.871094 206.695312 164.507812 212.355469 165.972656 217.839844 L 150.390625 217.484375 L 150.390625 81.597656 Z M 99.6875 262.777344 L 70.257812 129.738281 L 142.53125 113.753906 L 142.53125 141.539062 L 95.789062 150.886719 C 93.664062 151.3125 92.28125 153.382812 92.707031 155.511719 C 93.082031 157.378906 94.722656 158.667969 96.558594 158.667969 C 96.8125 158.667969 97.074219 158.644531 97.332031 158.59375 L 142.53125 149.554688 L 142.53125 162.503906 L 101.0625 170.796875 C 98.933594 171.222656 97.554688 173.292969 97.980469 175.421875 C 98.355469 177.289062 99.996094 178.578125 101.828125 178.578125 C 102.085938 178.578125 102.34375 178.554688 102.605469 178.503906 L 142.535156 170.515625 L 142.535156 184.710938 L 106.074219 192.003906 C 103.949219 192.429688 102.566406 194.5 102.992188 196.628906 C 103.367188 198.496094 105.007812 199.789062 106.84375 199.789062 C 107.097656 199.789062 107.359375 199.761719 107.617188 199.710938 L 142.535156 192.726562 L 142.535156 221.328125 C 142.535156 223.460938 144.238281 225.207031 146.375 225.257812 L 168.726562 225.765625 C 171.292969 231.703125 174.835938 237.132812 179.296875 241.9375 C 180.144531 242.855469 181.023438 243.738281 181.925781 244.589844 Z M 221.175781 252.316406 C 207.945312 252.316406 194.746094 247.03125 185.054688 236.589844 C 166.582031 216.683594 167.746094 185.457031 187.65625 166.984375 C 197.257812 158.050781 209.910156 153.367188 222.996094 153.867188 C 236.144531 154.359375 248.3125 159.941406 257.261719 169.582031 C 266.210938 179.226562 270.871094 191.777344 270.378906 204.925781 C 270.132812 230.730469 246.351562 253.035156 221.175781 252.316406 Z M 305.277344 285.464844 C 305.199219 287.585938 304.296875 289.550781 302.742188 290.996094 C 299.527344 293.980469 294.484375 293.792969 291.5 290.578125 L 253.804688 249.957031 C 255.96875 248.441406 258.042969 246.773438 260.007812 244.949219 C 261.972656 243.125 263.792969 241.183594 265.464844 239.136719 L 303.160156 279.757812 C 304.605469 281.316406 305.355469 283.339844 305.277344 285.464844 Z M 305.277344 285.464844 " fill-opacity="1" fill-rule="evenodd"/></g><path fill="#333333" d="M 174.554688 136.132812 L 229.847656 136.132812 C 232.019531 136.132812 233.777344 134.371094 233.777344 132.203125 C 233.777344 130.03125 232.019531 128.273438 229.847656 128.273438 L 174.554688 128.273438 C 172.386719 128.273438 170.625 130.03125 170.625 132.203125 C 170.625 134.371094 172.386719 136.132812 174.554688 136.132812 Z M 174.554688 136.132812 " fill-opacity="1" fill-rule="evenodd"/><path fill="#333333" d="M 137.855469 231.519531 C 137.539062 231.558594 136.707031 231.660156 136.269531 230.46875 C 135.890625 228.957031 134.675781 227.898438 133.136719 227.636719 C 131.824219 227.414062 130.527344 227.9375 129.640625 228.90625 L 130.414062 221.136719 C 130.523438 220.027344 130.15625 218.925781 129.40625 218.101562 C 128.664062 217.285156 127.609375 216.820312 126.503906 216.820312 C 126.496094 216.820312 126.488281 216.820312 126.480469 216.820312 C 126.28125 216.820312 121.523438 216.863281 116.550781 218.074219 C 114.4375 218.589844 112.519531 219.699219 111.007812 221.277344 C 109.503906 222.847656 109.558594 225.332031 111.128906 226.835938 C 112.695312 228.335938 115.183594 228.28125 116.683594 226.714844 C 117.160156 226.21875 117.757812 225.871094 118.414062 225.710938 C 119.695312 225.398438 120.976562 225.179688 122.128906 225.027344 L 121.765625 228.691406 C 118.59375 228.929688 115.9375 229.839844 113.820312 231.414062 C 110.210938 234.09375 109.59375 237.722656 109.507812 238.402344 C 108.730469 244.59375 112.71875 248.5625 117.058594 249.285156 C 117.554688 249.367188 118.054688 249.40625 118.5625 249.40625 C 122.777344 249.40625 127.214844 246.546875 128.46875 240.488281 C 128.527344 240.320312 128.789062 237.421875 128.820312 237.167969 C 129.628906 237.277344 130.53125 237.253906 131.4375 237.023438 C 133.09375 238.574219 135.507812 239.71875 138.792969 239.324219 C 140.949219 239.066406 142.488281 237.109375 142.226562 234.957031 C 141.96875 232.800781 140.011719 231.261719 137.855469 231.519531 Z M 117.3125 239.332031 C 117.316406 239.332031 117.3125 239.386719 117.3125 239.332031 Z M 117.304688 239.378906 C 117.308594 239.355469 117.308594 239.34375 117.3125 239.339844 C 117.308594 239.355469 117.304688 239.378906 117.300781 239.410156 C 117.300781 239.402344 117.304688 239.390625 117.304688 239.378906 Z M 120.730469 239.074219 C 120.257812 241.097656 119.160156 241.664062 118.347656 241.53125 C 116.699219 241.058594 116.980469 238.804688 118.539062 237.695312 C 119.160156 237.242188 119.980469 236.914062 120.964844 236.71875 Z M 120.730469 239.074219 " fill-opacity="1" fill-rule="evenodd"/></svg>